<svg version="1.1" id="Layer_1" xmlns="http://www.w3.org/2000/svg" xmlns:xlink="http://www.w3.org/1999/xlink" x="0px" y="0px"
	 width="32px" height="32px" viewBox="0 0 32 32" style="enable-background:new 0 0 32 32;" xml:space="preserve">
	<path d="M16.006,31.32l-1.298-1.73c-4.722-6.831-7.39-8.993-9.246-10.886c-1.406-1.424-3.803-3.316-4.974-6.11
	c-0.937-2.217-0.487-5.353,1.009-7.624C3.228,2.321,6.256,0.68,9.446,0.68c2.253,0,4.506,0.829,6.56,2.415
	c2.037-1.586,4.29-2.415,6.543-2.415c3.19,0,6.218,1.64,7.948,4.289c1.496,2.271,1.947,5.407,1.027,7.624
	c-1.171,2.794-3.586,4.686-4.992,6.11c-1.856,1.893-4.524,4.055-9.246,10.886L16.006,31.32z"/>
</svg>
